<?xml version="1.0" standalone="no"?>
<!DOCTYPE svg PUBLIC "-//W3C//DTD SVG 20010904//EN"
 "http://www.w3.org/TR/2001/REC-SVG-20010904/DTD/svg10.dtd">
<svg version="1.0" xmlns="http://www.w3.org/2000/svg"
 width="290.000000pt" height="290.000000pt" viewBox="0 0 290.000000 290.000000"
 preserveAspectRatio="xMidYMid meet">
<metadata>
Created by potrace 1.10, written by Peter Selinger 2001-2011
</metadata>
<g transform="translate(0.000000,290.000000) scale(0.100000,-0.100000)"
fill="#000000" stroke="none">
<path d="M1408 2578 c-77 -92 -125 -161 -163 -237 -119 -239 -96 -498 69 -754
l35 -56 -47 -42 c-121 -107 -277 -198 -412 -241 -111 -34 -265 -32 -375 6 -44
15 -104 41 -134 58 -66 38 -211 146 -211 158 0 5 35 35 79 68 171 129 288 174
451 176 149 1 285 -41 433 -136 l48 -31 -64 -46 c-173 -126 -352 -174 -511
-137 -63 15 -226 91 -226 106 0 10 106 71 172 98 56 24 76 27 178 26 100 0
124 -4 185 -26 39 -15 61 -20 50 -12 -48 35 -156 59 -270 58 -99 0 -118 -4
-188 -31 -70 -28 -197 -101 -197 -113 0 -9 93 -68 155 -99 177 -88 366 -81
558 22 72 38 208 137 215 156 5 13 -148 108 -233 145 -113 49 -227 70 -340 63
-152 -10 -295 -70 -450 -191 -122 -96 -120 -90 -55 -147 171 -152 371 -239
550 -239 185 0 397 92 594 256 l73 62 28 -36 29 -36 -60 -53 c-67 -61 -141
-113 -229 -160 l-60 -33 47 0 c40 0 60 8 117 44 37 24 100 72 139 105 l72 62
80 -68 c121 -103 193 -143 254 -143 l51 0 -63 30 c-72 34 -163 97 -241 167
l-55 49 29 36 28 36 65 -55 c200 -170 416 -263 607 -263 176 0 383 91 545 240
l55 50 -55 50 c-120 109 -257 185 -400 221 -141 36 -304 17 -462 -54 -65 -29
-218 -125 -218 -137 0 -14 143 -118 220 -159 181 -97 369 -107 537 -29 52 24
173 99 173 108 0 13 -127 85 -196 112 -90 35 -210 47 -294 29 -59 -12 -173
-51 -167 -57 2 -2 30 5 63 17 122 43 285 34 398 -23 57 -28 126 -72 126 -79 0
-14 -181 -98 -236 -109 -155 -32 -352 26 -520 154 l-45 34 58 35 c243 146 438
172 652 86 75 -30 203 -110 271 -169 l35 -31 -35 -30 c-72 -61 -203 -142 -273
-170 -155 -60 -293 -62 -445 -8 -48 17 -97 31 -109 32 -11 1 -19 5 -17 9 2 3
-20 20 -49 36 -61 34 -176 119 -224 164 l-31 30 35 55 c125 196 168 396 128
588 -22 103 -101 254 -190 363 -42 50 -80 92 -84 92 -5 0 -29 -24 -53 -52z
m115 -81 c78 -99 153 -251 173 -352 27 -138 3 -287 -68 -430 -36 -71 -81 -145
-89 -145 -3 0 -15 14 -28 31 l-23 30 51 102 c61 122 81 195 81 297 0 122 -31
215 -119 352 -20 32 -38 58 -41 58 -3 0 -21 -26 -41 -58 -88 -137 -119 -230
-119 -352 0 -102 20 -175 81 -297 l51 -102 -23 -30 c-13 -17 -25 -31 -28 -31
-18 0 -101 159 -134 255 -26 78 -31 104 -31 200 -1 130 19 206 86 327 39 70
146 218 158 217 3 0 31 -32 63 -72z m-28 -182 c75 -129 101 -272 71 -400 -17
-70 -91 -235 -106 -235 -15 0 -89 165 -106 235 -29 127 -4 273 68 393 18 28
35 52 39 52 4 0 19 -20 34 -45z m-7 -821 c-13 -18 -25 -34 -28 -34 -3 0 -16
16 -29 35 l-23 35 27 36 27 35 25 -36 25 -36 -24 -35z m-103 47 c3 -5 2 -12
-3 -15 -5 -3 -9 1 -9 9 0 17 3 19 12 6z m157 -21 c-22 -26 -24 -25 -10 5 6 13
15 22 19 19 5 -2 1 -14 -9 -24z m-242 -233 c0 -2 -10 -12 -22 -23 l-23 -19 19
23 c18 21 26 27 26 19z"/>
<path d="M814 2048 c20 -132 150 -295 287 -361 41 -20 84 -39 97 -42 21 -6 22
-4 16 22 -46 192 -182 344 -367 409 l-40 14 7 -42z m135 -69 c74 -49 130 -113
176 -200 19 -37 35 -70 35 -74 0 -3 -23 6 -52 22 -80 44 -170 137 -212 221
-43 85 -35 90 53 31z m231 -289 c0 -5 -5 -10 -11 -10 -5 0 -7 5 -4 10 3 6 8
10 11 10 2 0 4 -4 4 -10z"/>
<path d="M2070 2075 c-167 -59 -304 -203 -354 -374 -9 -30 -14 -56 -12 -58 8
-9 120 41 176 78 101 68 183 177 216 287 22 73 18 82 -26 67z m2 -44 c-5 -3
-26 -40 -47 -81 -43 -86 -131 -178 -214 -223 -28 -16 -51 -25 -51 -22 0 4 17
39 37 79 44 84 127 171 206 216 31 17 57 36 57 42 0 5 5 6 11 2 7 -4 8 -9 1
-13z m-317 -341 c3 -5 1 -10 -4 -10 -6 0 -11 5 -11 10 0 6 2 10 4 10 3 0 8 -4
11 -10z"/>
<path d="M165 858 c60 -153 65 -163 90 -163 25 0 30 10 90 163 l63 163 -31 -3
c-29 -3 -32 -8 -73 -118 -23 -63 -46 -114 -50 -113 -4 1 -26 53 -49 115 -40
108 -44 113 -73 116 l-30 3 63 -163z m105 -114 c0 -21 -27 -17 -33 5 -3 14 0
17 14 14 11 -3 19 -12 19 -19z"/>
<path d="M490 855 l0 -165 30 0 30 0 0 165 0 165 -30 0 -30 0 0 -165z"/>
<path d="M670 855 l0 -165 31 0 30 0 -3 105 c-2 58 0 105 3 105 3 0 39 -47 79
-105 53 -74 81 -105 95 -105 19 0 20 6 20 165 l0 165 -30 0 -30 0 3 -105 c3
-98 -6 -132 -22 -88 -4 9 -35 56 -69 104 -46 66 -68 88 -84 89 -23 0 -23 0
-23 -165z m57 108 c-4 -3 -1 -11 6 -17 7 -6 10 -10 8 -9 -2 2 -10 -5 -17 -15
-12 -15 -13 -14 -14 16 0 18 5 32 12 32 6 0 8 -3 5 -7z m163 -190 c-1 -38 -1
-38 -15 -13 -9 18 -10 29 -3 37 16 19 18 16 18 -24z"/>
<path d="M1123 1000 c-58 -26 -83 -69 -83 -143 0 -105 50 -155 164 -164 l63
-6 5 32 5 31 -62 0 c-72 0 -99 15 -115 66 -16 47 -6 95 26 125 21 20 36 24 84
24 57 0 59 1 58 28 -1 26 -3 27 -52 27 -28 0 -70 -9 -93 -20z"/>
<path d="M1445 903 c-26 -65 -58 -139 -71 -165 l-22 -48 32 0 c28 0 34 5 47
41 l15 41 64 1 65 0 19 -42 c16 -34 24 -41 49 -41 19 0 27 4 24 13 -3 6 -33
76 -66 154 -34 78 -61 147 -61 153 0 5 -10 10 -23 10 -20 0 -29 -16 -72 -117z
m85 58 c0 -5 -9 -11 -19 -14 -14 -3 -18 -1 -14 9 6 15 33 19 33 5z m6 -78 c11
-27 21 -51 22 -55 2 -5 -19 -8 -47 -8 l-51 0 20 40 c11 21 20 46 20 55 0 30
18 14 36 -32z m59 -83 c3 -18 2 -20 -10 -10 -8 6 -11 18 -8 26 7 18 12 13 18
-16z m-141 -1 c-3 -5 -10 -7 -15 -3 -5 3 -7 10 -3 15 3 5 10 7 15 3 5 -3 7
-10 3 -15z"/>
<path d="M1865 1009 c-71 -22 -109 -85 -103 -166 5 -57 25 -92 72 -127 22 -17
42 -21 99 -21 l72 0 3 83 3 82 -31 0 -31 0 2 -57 3 -58 -39 1 c-57 2 -95 47
-95 112 0 26 7 57 15 69 20 28 78 47 126 40 38 -5 39 -4 39 24 0 28 -1 29 -52
28 -29 0 -66 -5 -83 -10z"/>
<path d="M2140 913 c0 -126 12 -177 45 -199 37 -24 95 -28 138 -10 55 22 67
60 67 201 l0 115 -30 0 -30 0 0 -124 c0 -118 -1 -126 -22 -140 -31 -22 -64
-20 -88 4 -18 18 -20 33 -20 140 l0 120 -30 0 -30 0 0 -107z"/>
<path d="M2575 903 c-26 -65 -58 -139 -71 -165 l-22 -48 32 0 c29 0 34 4 46
40 l13 40 69 0 68 0 16 -40 c14 -34 21 -40 46 -40 20 0 28 4 25 13 -3 6 -33
76 -66 154 -34 78 -61 147 -61 153 0 5 -10 10 -23 10 -20 0 -29 -16 -72 -117z
m71 68 c-4 -5 -1 -11 6 -13 7 -3 3 -7 -10 -10 -19 -5 -20 -4 -11 13 5 10 12
19 15 19 3 0 3 -4 0 -9z m20 -88 c11 -27 21 -51 22 -55 2 -5 -19 -8 -47 -8
l-51 0 20 40 c11 21 20 46 20 55 0 30 18 14 36 -32z m59 -83 c3 -6 -1 -7 -9
-4 -18 7 -21 14 -7 14 6 0 13 -4 16 -10z m-148 -6 c-3 -3 -12 -4 -19 -1 -8 3
-5 6 6 6 11 1 17 -2 13 -5z"/>
</g>
</svg>
